<mxfile host="app.diagrams.net" modified="2024-07-06T07:38:42.927Z" agent="Mozilla/5.0 (Windows NT 10.0; Win64; x64) AppleWebKit/537.36 (KHTML, like Gecko) Chrome/126.0.0.0 Safari/537.36" version="24.6.4" etag="u0L6UKAjddjFkRCnqL6r" type="github">
  <diagram name="Page-1" id="79fteafpiBjPOYoHi5Hd">
    <mxGraphModel>
      <root>
        <mxCell id="0" />
        <mxCell id="1" parent="0" />
      </root>
    </mxGraphModel>
  </diagram>
</mxfile>
